<?xml version="1.0" encoding="UTF-8"?>
<svg width="18px" height="18px" viewBox="0 0 18 18" version="1.1" xmlns="http://www.w3.org/2000/svg" xmlns:xlink="http://www.w3.org/1999/xlink">
    <!-- Generator: sketchtool 43.1 (39012) - http://www.bohemiancoding.com/sketch -->
    <title>7B88AA02-3D12-4B1F-8C50-631F28F06906</title>
    <desc>Created with sketchtool.</desc>
    <defs></defs>
    <g id="Page-1" stroke="none" stroke-width="1" fill="none" fill-rule="evenodd">
        <g id="Send" transform="translate(-152.000000, -631.000000)" fill-rule="nonzero" fill="#7C95AB">
            <g id="LeftTab" transform="translate(70.000000, 102.000000)">
                <g id="Settings" transform="translate(82.000000, 529.000000)">
                    <g id="Shape">
                        <path d="M16.308,7.2 C16.103781,7.19712687 15.9256814,7.06050251 15.87,6.864 C15.7407823,6.44970808 15.5740936,6.04804843 15.372,5.664 C15.2726546,5.47700141 15.30939,5.24679292 15.462,5.1 C15.7741681,4.78825065 15.9495776,4.36517637 15.9495776,3.924 C15.9495776,3.48282363 15.7741681,3.05974935 15.462,2.748 L15.264,2.55 C14.9509846,2.23562895 14.5256302,2.05890271 14.082,2.05890271 C13.6383698,2.05890271 13.2130154,2.23562895 12.9,2.55 C12.7518256,2.69271824 12.5278249,2.72193572 12.348,2.622 C11.9638252,2.42017568 11.5621905,2.25349726 11.148,2.124 C10.9383997,2.0662673 10.7949463,1.87334717 10.8,1.656 C10.7967091,0.742783065 10.0572169,0.00329090385 9.144,0 L8.862,0 C8.41752345,0.00157293511 7.99205763,0.180481175 7.6800243,0.497020398 C7.36799098,0.813559622 7.19520068,1.24154658 7.2,1.686 C7.19712687,1.890219 7.06050251,2.06831861 6.864,2.124 C6.44974205,2.25331135 6.04809076,2.41999664 5.664,2.622 C5.47552402,2.72443634 5.24174541,2.68752393 5.094,2.532 C4.78225065,2.21983188 4.35917637,2.04442241 3.918,2.04442241 C3.47682363,2.04442241 3.05374935,2.21983188 2.742,2.532 L2.544,2.73 C2.22962895,3.04301535 2.05290271,3.46836978 2.05290271,3.912 C2.05290271,4.35563022 2.22962895,4.78098465 2.544,5.094 C2.68671824,5.24217442 2.71593572,5.46617506 2.616,5.646 C2.41417568,6.03017476 2.24749726,6.43180951 2.118,6.846 C2.05577385,7.05083253 1.8639761,7.18853348 1.65,7.182 C1.20920659,7.18517113 0.787727965,7.36332281 0.478290468,7.67726121 C0.168852971,7.99119962 -0.00319411292,8.41520675 -5.24913568e-14,8.856 L-5.24913568e-14,9.138 C0.00157293511,9.58247655 0.180481175,10.0079424 0.497020398,10.3199757 C0.813559622,10.632009 1.24154658,10.8047993 1.686,10.8 C1.890219,10.8028731 2.06831861,10.9394975 2.124,11.136 C2.25331135,11.5502579 2.41999664,11.9519092 2.622,12.336 C2.72443634,12.524476 2.68752393,12.7582546 2.532,12.906 C2.21983188,13.2177493 2.04442241,13.6408236 2.04442241,14.082 C2.04442241,14.5231764 2.21983188,14.9462507 2.532,15.258 L2.73,15.456 C3.04301535,15.7703711 3.46836978,15.9470973 3.912,15.9470973 C4.35563022,15.9470973 4.78098465,15.7703711 5.094,15.456 C5.24217442,15.3132818 5.46617506,15.2840643 5.646,15.384 C6.03017476,15.5858243 6.43180951,15.7525027 6.846,15.882 C7.05083253,15.9442262 7.18853348,16.1360239 7.182,16.35 C7.18517113,16.7907934 7.36332281,17.212272 7.67726121,17.5217095 C7.99119962,17.831147 8.41520675,18.0031941 8.856,18 L9.138,18 C9.58247655,17.9984271 10.0079424,17.8195188 10.3199757,17.5029796 C10.632009,17.1864404 10.8047993,16.7584534 10.8,16.314 C10.8028731,16.109781 10.9394975,15.9316814 11.136,15.876 C11.5501905,15.7465027 11.9518252,15.5798243 12.336,15.378 C12.5229986,15.2786546 12.7532071,15.31539 12.9,15.468 C13.2174762,15.7861287 13.6506227,15.961553 14.1,15.954 L14.1,15.954 C14.5495067,15.9622498 14.9829157,15.7867192 15.3,15.468 L15.498,15.27 C15.8123711,14.9569846 15.9890973,14.5316302 15.9890973,14.088 C15.9890973,13.6443698 15.8123711,13.2190154 15.498,12.906 C15.3552818,12.7578256 15.3260643,12.5338249 15.426,12.354 C15.6280634,11.9699374 15.794751,11.5682806 15.924,11.154 C15.9862262,10.9491675 16.1780239,10.8114665 16.392,10.818 C17.2934186,10.7887237 18.0069872,10.0458668 18,9.144 L18,8.862 C17.9984435,8.41647021 17.8187121,7.99007968 17.5008679,7.67787099 C17.1830236,7.36566231 16.7534863,7.19358674 16.308,7.2 L16.308,7.2 Z M16.8,9.144 C16.7969288,9.27029818 16.7429265,9.38998987 16.6502682,9.47586829 C16.5576099,9.56174671 16.4341674,9.60651608 16.308,9.6 C15.5719978,9.60354912 14.9266611,10.0924406 14.724,10.8 C14.6168606,11.147862 14.4782893,11.4852531 14.31,11.808 C13.9631582,12.4610848 14.0877112,13.2645737 14.616,13.782 C14.7928736,13.9617914 14.7928736,14.2502086 14.616,14.43 L14.418,14.628 C14.3318461,14.7133282 14.2152547,14.7608284 14.094,14.76 L14.094,14.76 C13.961434,14.7582906 13.8354785,14.7018278 13.746,14.604 C13.2281944,14.0884702 12.4344217,13.9715957 11.79,14.316 C11.4672531,14.4842893 11.129862,14.6228606 10.782,14.73 C10.0661559,14.9392291 9.57619392,15.598228 9.582,16.344 C9.57876746,16.5944907 9.37649067,16.7967675 9.126,16.8 L8.844,16.8 C8.71879086,16.7968827 8.60005585,16.7437074 8.51435613,16.6523696 C8.42865641,16.5610317 8.38314397,16.4391538 8.388,16.314 C8.38445088,15.5779978 7.89555939,14.9326611 7.188,14.73 C6.84013799,14.6228606 6.50274688,14.4842893 6.18,14.316 C5.52691519,13.9691582 4.72342626,14.0937112 4.206,14.622 C4.02620864,14.7988736 3.73779136,14.7988736 3.558,14.622 L3.384,14.4 C3.29308667,14.3118539 3.24177293,14.1906293 3.24177293,14.064 C3.24177293,13.9373707 3.29308667,13.8161461 3.384,13.728 C3.89952981,13.2101944 4.01640433,12.4164217 3.672,11.772 C3.51163484,11.4602932 3.37911976,11.135029 3.276,10.8 C3.06677087,10.0841559 2.40777203,9.59419392 1.662,9.6 C1.40916934,9.60002132 1.20328351,9.39680934 1.2,9.144 L1.2,8.862 C1.20152505,8.73574045 1.25400451,8.61545447 1.34552108,8.52845724 C1.43703764,8.44146001 1.55982502,8.3951343 1.686,8.4 C2.42200218,8.39645088 3.06733893,7.90755939 3.27,7.2 C3.37713938,6.85213799 3.51571073,6.51474688 3.684,6.192 C4.03084184,5.53891519 3.90628885,4.73542626 3.378,4.218 C3.22163882,4.04078711 3.22422759,3.77414363 3.384,3.6 L3.6,3.384 C3.68814613,3.29308667 3.80937072,3.24177293 3.936,3.24177293 C4.06262928,3.24177293 4.18385387,3.29308667 4.272,3.384 C4.78980558,3.89952981 5.58357835,4.01640433 6.228,3.672 C6.53970676,3.51163484 6.86497105,3.37911976 7.2,3.276 C7.91584412,3.06677087 8.40580608,2.40777203 8.4,1.662 C8.39997868,1.40916934 8.60319066,1.20328351 8.856,1.2 L9.138,1.2 C9.26320914,1.20311731 9.38194415,1.25629258 9.46764387,1.34763044 C9.55334359,1.4389683 9.59885603,1.56084623 9.594,1.686 C9.59754912,2.42200218 10.0864406,3.06733893 10.794,3.27 C11.141862,3.37713938 11.4792531,3.51571073 11.802,3.684 C12.4550848,4.03084184 13.2585737,3.90628885 13.776,3.378 C13.9557914,3.20112641 14.2442086,3.20112641 14.424,3.378 L14.622,3.576 C14.7110428,3.66393013 14.7611611,3.78385876 14.7611611,3.909 C14.7611611,4.03414124 14.7110428,4.15406987 14.622,4.242 C14.1064702,4.75980558 13.9895957,5.55357835 14.334,6.198 C14.4937254,6.5196552 14.6242493,6.85500136 14.724,7.2 C14.9332291,7.91584412 15.592228,8.40580608 16.338,8.4 C16.5884907,8.40323254 16.7907675,8.60550933 16.794,8.856 L16.8,9.144 Z"></path>
                        <path d="M9,5.4 C7.0117749,5.4 5.4,7.0117749 5.4,9 C5.4,10.9882251 7.0117749,12.6 9,12.6 C10.9882251,12.6 12.6,10.9882251 12.6,9 C12.6,7.0117749 10.9882251,5.4 9,5.4 Z M9,11.4 C7.6745166,11.4 6.6,10.3254834 6.6,9 C6.6,7.6745166 7.6745166,6.6 9,6.6 C10.3254834,6.6 11.4,7.6745166 11.4,9 C11.4,9.63651958 11.1471436,10.246969 10.6970563,10.6970563 C10.246969,11.1471436 9.63651958,11.4 9,11.4 Z"></path>
                    </g>
                </g>
            </g>
        </g>
    </g>
</svg>