<?xml version="1.0" encoding="UTF-8"?>
<svg width="13px" height="18px" viewBox="0 0 13 18" version="1.1" xmlns="http://www.w3.org/2000/svg" xmlns:xlink="http://www.w3.org/1999/xlink">
    <!-- Generator: sketchtool 43.1 (39012) - http://www.bohemiancoding.com/sketch -->
    <title>5C397800-6CC3-496C-9EBC-D1FF997D9240</title>
    <desc>Created with sketchtool.</desc>
    <defs></defs>
    <g id="Page-1" stroke="none" stroke-width="1" fill="none" fill-rule="evenodd">
        <g id="Receive" transform="translate(-155.000000, -551.000000)" fill-rule="nonzero" fill="#7C95AB">
            <g id="LeftTab" transform="translate(70.000000, 102.000000)">
                <g id="OfflineOperation" transform="translate(85.000000, 449.000000)">
                    <g id="Group">
                        <g>
                            <path d="M12.6666667,0 L3.33333333,0 C3.28866667,0 3.24533333,0.009 3.205,0.026 C3.16466667,0.0426666667 3.128,0.0673333333 3.09766667,0.0976666667 L0.0976666667,3.09766667 C0.0673333333,3.128 0.0426666667,3.16466667 0.026,3.205 C0.009,3.24533333 0,3.28866667 0,3.33333333 L0,17.6666667 C0,17.8506667 0.149333333,18 0.333333333,18 L12.6666667,18 C12.8506667,18 13,17.8506667 13,17.6666667 L13,0.333333333 C13,0.149333333 12.8506667,0 12.6666667,0 Z M3,1.138 L3,3 L1.138,3 L3,1.138 Z M12.3333333,17.3333333 L0.666666667,17.3333333 L0.666666667,3.66666667 L3.33333333,3.66666667 C3.51733333,3.66666667 3.66666667,3.51733333 3.66666667,3.33333333 L3.66666667,0.666666667 L12.3333333,0.666666667 L12.3333333,17.3333333 Z" id="Shape"></path>
                            <path d="M10.6666667,6.66666667 L2.33333333,6.66666667 C2.14933333,6.66666667 2,6.816 2,7 C2,7.184 2.14933333,7.33333333 2.33333333,7.33333333 L10.6666667,7.33333333 C10.8506667,7.33333333 11,7.184 11,7 C11,6.816 10.8506667,6.66666667 10.6666667,6.66666667 Z" id="Shape"></path>
                            <path d="M8.33333333,2.16666667 L10.6666667,2.16666667 C10.8506667,2.16666667 11,2.01733333 11,1.83333333 C11,1.64933333 10.8506667,1.5 10.6666667,1.5 L8.33333333,1.5 C8.14933333,1.5 8,1.64933333 8,1.83333333 C8,2.01733333 8.14933333,2.16666667 8.33333333,2.16666667 Z" id="Shape"></path>
                            <path d="M7.33333333,3.66666667 L10.6666667,3.66666667 C10.8506667,3.66666667 11,3.51733333 11,3.33333333 C11,3.14933333 10.8506667,3 10.6666667,3 L7.33333333,3 C7.14933333,3 7,3.14933333 7,3.33333333 C7,3.51733333 7.14933333,3.66666667 7.33333333,3.66666667 Z" id="Shape"></path>
                            <path d="M10.6666667,9.33333333 L2.33333333,9.33333333 C2.14933333,9.33333333 2,9.48266667 2,9.66666667 C2,9.85066667 2.14933333,10 2.33333333,10 L10.6666667,10 C10.8506667,10 11,9.85066667 11,9.66666667 C11,9.48266667 10.8506667,9.33333333 10.6666667,9.33333333 Z" id="Shape"></path>
                            <path d="M10.6666667,12 L2.33333333,12 C2.14933333,12 2,12.1493333 2,12.3333333 C2,12.5173333 2.14933333,12.6666667 2.33333333,12.6666667 L10.6666667,12.6666667 C10.8506667,12.6666667 11,12.5173333 11,12.3333333 C11,12.1493333 10.8506667,12 10.6666667,12 Z" id="Shape"></path>
                            <path d="M10.6666667,14.6666667 L2.33333333,14.6666667 C2.14933333,14.6666667 2,14.816 2,15 C2,15.184 2.14933333,15.3333333 2.33333333,15.3333333 L10.6666667,15.3333333 C10.8506667,15.3333333 11,15.184 11,15 C11,14.816 10.8506667,14.6666667 10.6666667,14.6666667 Z" id="Shape"></path>
                        </g>
                    </g>
                </g>
            </g>
        </g>
    </g>
</svg>