<?xml version="1.0" encoding="UTF-8"?>
<svg width="20px" height="17px" viewBox="0 0 20 17" version="1.1" xmlns="http://www.w3.org/2000/svg" xmlns:xlink="http://www.w3.org/1999/xlink">
    <!-- Generator: sketchtool 43.1 (39012) - http://www.bohemiancoding.com/sketch -->
    <title>91790D61-20C8-4470-B807-6C8ABE527982</title>
    <desc>Created with sketchtool.</desc>
    <defs></defs>
    <g id="Page-1" stroke="none" stroke-width="1" fill="none" fill-rule="evenodd">
        <g id="Send" transform="translate(-152.000000, -312.000000)" fill-rule="nonzero" fill="#17B0E7">
            <g id="LeftTab" transform="translate(70.000000, 102.000000)">
                <g id="Send" transform="translate(50.000000, 198.000000)">
                    <g transform="translate(32.000000, 12.000000)" id="Shape">
                        <g>
                            <path d="M10.7525524,16.4201997 L19.3727345,1.19763453 C19.5929582,0.819434151 19.4671161,0.315166981 19.0581294,0.0945500944 C18.9322873,0.0315166981 18.8064452,-1.77635684e-15 18.6491426,-1.77635684e-15 L1.18855478,-1.77635684e-15 C0.653725961,-1.77635684e-15 0.181818182,0.441233774 0.181818182,1.00853434 C0.181818182,1.19763453 0.2132787,1.35521802 0.307660256,1.51280151 C0.370581294,1.6073516 0.433502331,1.7019017 0.527883887,1.76493509 L7.26043487,7.46945745 L8.89638184,16.1050327 C8.9907634,16.6408166 9.52559221,16.9875003 10.060421,16.8929502 C10.3435657,16.8614335 10.5952498,16.6723333 10.7525524,16.4201997 L10.7525524,16.4201997 Z M8.10986888,5.98817264 L2.9188833,1.6073516 L15.6289328,1.6073516 L8.10986888,5.98817264 Z M8.92784236,7.40642406 L16.4783668,2.99408632 L10.1862631,14.0879641 L8.92784236,7.40642406 Z"></path>
                        </g>
                    </g>
                </g>
            </g>
        </g>
    </g>
</svg>