<?xml version="1.0" encoding="UTF-8"?>
<svg width="19px" height="18px" viewBox="0 0 19 18" version="1.1" xmlns="http://www.w3.org/2000/svg" xmlns:xlink="http://www.w3.org/1999/xlink">
    <!-- Generator: Sketch 43.1 (39012) - http://www.bohemiancoding.com/sketch -->
    <title>LogOut</title>
    <desc>Created with Sketch.</desc>
    <defs></defs>
    <g id="Page-1" stroke="none" stroke-width="1" fill="none" fill-rule="evenodd">
        <g id="Portfolio" transform="translate(-151.000000, -922.000000)" fill-rule="nonzero" fill="#7C95AB">
            <g id="LeftTab" transform="translate(70.000000, 102.000000)">
                <g id="LogOut" transform="translate(81.000000, 820.000000)">
                    <g id="Shape">
                        <path d="M16.9664367,0 L10.0936604,0 C8.96395418,0 8.04043127,0.970088496 8.04043127,2.14120354 L8.04043127,4.03375221 C8.04043127,4.32700075 8.2697194,4.56472566 8.55256065,4.56472566 C8.83540189,4.56472566 9.06469003,4.32700075 9.06469003,4.03375221 L9.06469003,2.14120354 C9.06614119,1.55066223 9.52397974,1.07037718 10.0935067,1.0619469 L16.966283,1.0619469 C17.5312129,1.0619469 17.9757412,1.55575221 17.9757412,2.14120354 L17.9757412,15.8716991 C17.9789797,16.151164 17.8750055,16.4205158 17.686693,16.6204973 C17.4983804,16.8204788 17.241156,16.9347075 16.9716092,16.9380531 L10.0937116,16.9380531 C9.52650709,16.9357846 9.06716037,16.459773 9.06469003,15.8716991 L9.06469003,14.0186018 C9.06469003,13.7253532 8.83540189,13.4876283 8.55256065,13.4876283 C8.2697194,13.4876283 8.04043127,13.7253532 8.04043127,14.0186018 L8.04043127,15.8716991 C8.04349905,17.0459315 8.960947,17.9969951 10.0935067,18 L16.966283,18 C17.5077738,17.9978215 18.0262505,17.7727051 18.4076488,17.3741762 C18.7890471,16.9756473 19.002123,16.4363532 19,15.8749381 L19,2.14120354 C19,0.970088496 18.0959892,0 16.9664367,0 Z"></path>
                        <path d="M1.79414286,9.55752212 L13.9145553,9.55752212 C14.1973965,9.55752212 14.4266846,9.31979721 14.4266846,9.02654867 C14.4266846,8.73330013 14.1973965,8.49557522 13.9145553,8.49557522 L1.68034771,8.49557522 L4.30787871,5.34653097 C4.49310822,5.12316344 4.47026108,4.7867965 4.25666577,4.59254867 C4.04389814,4.39969411 3.72063633,4.42213295 3.53456334,4.64267257 L3.53456334,4.64299115 L0.222725067,8.5979469 C0.100582328,8.70198102 0.0318083186,8.85880764 0.0364882298,9.02262613 C0.041168141,9.18644462 0.118774074,9.3387761 0.246641509,9.43513274 L3.5589407,12.8691504 C3.75893887,13.0765037 4.0831959,13.0765037 4.28319407,12.8691504 L4.28319407,12.8691504 C4.37795335,12.7727506 4.4318955,12.6412707 4.43315367,12.5036353 C4.43441183,12.3659999 4.38288294,12.2334836 4.28990296,12.1352389 C4.28770081,12.1329027 4.28544744,12.1305664 4.28319407,12.1282832 L1.79414286,9.55752212 Z"></path>
                    </g>
                </g>
            </g>
        </g>
    </g>
</svg>