<?xml version="1.0" encoding="UTF-8"?>
<svg width="82px" height="72px" viewBox="0 0 82 72" version="1.1" xmlns="http://www.w3.org/2000/svg" xmlns:xlink="http://www.w3.org/1999/xlink">
    <!-- Generator: Sketch 43.1 (39012) - http://www.bohemiancoding.com/sketch -->
    <title>noun_Purse_1911598</title>
    <desc>Created with Sketch.</desc>
    <defs></defs>
    <g id="Page-1" stroke="none" stroke-width="1" fill="none" fill-rule="evenodd">
        <g id="noun_Purse_1911598" transform="translate(0.000000, -1.000000)" fill-rule="nonzero" fill="#000000">
            <g id="Group" transform="translate(0.000000, 0.637820)">
                <path d="M8,0.36219 C3.6026,0.36219 0,3.96479 0,8.36219 L0,65.3622 C0,69.2056 3.1566,72.3622 7,72.3622 L75,72.3622 C78.8434,72.3622 82,69.2056 82,65.3622 L82,19.36219 C82,15.51879 78.8434,12.36219 75,12.36219 L70,12.36219 L70,2.36219 C69.9999,1.31499 69.0472,0.36229 68,0.36219 L8,0.36219 Z M8,4.36219 L66,4.36219 L66,12.36219 L8,12.36219 C5.7494,12.36219 4,10.61279 4,8.36219 C4,6.11159 5.7494,4.36219 8,4.36219 Z M4,15.26839 C5.1789,15.95499 6.5456,16.36219 8,16.36219 C30.5241,16.34219 55.6406,16.36219 75,16.36219 C76.6966,16.36219 78,17.66559 78,19.36219 L78,31.36219 L49,31.36219 C46.2646,31.36219 44,33.62679 44,36.3622 L44,48.3622 C44,51.0976 46.2646,53.3622 49,53.3622 L78,53.3622 L78,65.3622 C78,67.0588 76.6966,68.3622 75,68.3622 L7,68.3622 C5.3034,68.3622 4,67.0588 4,65.3622 L4,15.26839 Z M49,35.3622 L78,35.3622 L78,49.3622 L49,49.3622 C48.4114,49.3622 48,48.9508 48,48.3622 L48,36.3622 C48,35.7736 48.4114,35.361 49,35.3622 Z M59,38.3622 C56.7909,38.3622 55,40.1531 55,42.3622 C55,44.5714 56.7909,46.3622 59,46.3622 C61.2091,46.3622 63,44.5714 63,42.3622 C63,40.1531 61.2091,38.3622 59,38.3622 Z" id="Shape"></path>
            </g>
        </g>
    </g>
</svg>