<?xml version="1.0" encoding="UTF-8"?>
<svg width="20px" height="18px" viewBox="0 0 20 18" version="1.1" xmlns="http://www.w3.org/2000/svg" xmlns:xlink="http://www.w3.org/1999/xlink">
    <!-- Generator: sketchtool 43.1 (39012) - http://www.bohemiancoding.com/sketch -->
    <title>B9A1F5FA-D55B-4EDD-892A-F2301DCCF6FB</title>
    <desc>Created with sketchtool.</desc>
    <defs></defs>
    <g id="Page-1" stroke="none" stroke-width="1" fill="none" fill-rule="evenodd">
        <g id="Receive" transform="translate(-152.000000, -233.000000)" fill-rule="nonzero" fill="#7C95AB">
            <g id="LeftTab" transform="translate(70.000000, 102.000000)">
                <g id="Portfolio" transform="translate(82.000000, 131.000000)">
                    <g id="Group">
                        <g transform="translate(0.000000, 0.153339)">
                            <path d="M1.93170732,0 C0.869896098,0 0,0.866104521 0,1.92328767 L0,15.6267147 C0,16.5507102 0.762203415,17.3095914 1.6902439,17.3095914 L18.1097561,17.3095914 C19.0377966,17.3095914 19.8,16.5507102 19.8,15.6267147 L19.8,4.56780822 C19.8,3.64381274 19.0377966,2.88493151 18.1097561,2.88493151 L16.902439,2.88493151 L16.902439,0.480821918 C16.9024149,0.229063562 16.6723727,2.40410959e-05 16.4195122,0 L1.93170732,0 Z M1.93170732,0.961643836 L15.9365854,0.961643836 L15.9365854,2.88493151 L1.93170732,2.88493151 C1.38826976,2.88493151 0.965853659,2.46435658 0.965853659,1.92328767 C0.965853659,1.38221877 1.38826976,0.961643836 1.93170732,0.961643836 Z M0.965853659,3.58361384 C1.25051488,3.74868 1.58052293,3.84657534 1.93170732,3.84657534 C7.37045341,3.84176712 13.4351693,3.84657534 18.1097561,3.84657534 C18.5194229,3.84657534 18.8341463,4.15992699 18.8341463,4.56780822 L18.8341463,7.45273973 L11.8317073,7.45273973 C11.1712083,7.45273973 10.6243902,7.99717438 10.6243902,8.65479692 L10.6243902,11.5397284 C10.6243902,12.1973486 11.1712083,12.7417832 11.8317073,12.7417832 L18.8341463,12.7417832 L18.8341463,15.6267147 C18.8341463,16.034596 18.5194229,16.3479476 18.1097561,16.3479476 L1.6902439,16.3479476 C1.28057707,16.3479476 0.965853659,16.034596 0.965853659,15.6267147 L0.965853659,3.58361384 Z M11.8317073,8.41438597 L18.8341463,8.41438597 L18.8341463,11.7801394 L11.8317073,11.7801394 C11.689582,11.7801394 11.5902439,11.6812343 11.5902439,11.5397284 L11.5902439,8.65479692 C11.5902439,8.51329103 11.689582,8.41409747 11.8317073,8.41438597 Z M14.2463415,9.13561884 C13.7129246,9.13561884 13.2804878,9.56617083 13.2804878,10.0972627 C13.2804878,10.6283786 13.7129246,11.0589065 14.2463415,11.0589065 C14.7797583,11.0589065 15.2121951,10.6283786 15.2121951,10.0972627 C15.2121951,9.56617083 14.7797583,9.13561884 14.2463415,9.13561884 Z" id="Shape"></path>
                        </g>
                    </g>
                </g>
            </g>
        </g>
    </g>
</svg>