<?xml version="1.0" encoding="UTF-8"?>
<svg width="19px" height="16px" viewBox="0 0 19 16" version="1.1" xmlns="http://www.w3.org/2000/svg" xmlns:xlink="http://www.w3.org/1999/xlink">
    <!-- Generator: sketchtool 43.1 (39012) - http://www.bohemiancoding.com/sketch -->
    <title>3B43425A-7FA2-485B-9956-7A4C2C8943AA</title>
    <desc>Created with sketchtool.</desc>
    <defs></defs>
    <g id="Page-1" stroke="none" stroke-width="1" fill="none" fill-rule="evenodd">
        <g id="Receive" transform="translate(-152.000000, -472.000000)" fill-rule="nonzero" fill="#7C95AB">
            <g id="LeftTab" transform="translate(70.000000, 102.000000)">
                <g id="Transactions" transform="translate(82.000000, 370.000000)">
                    <g id="Group">
                        <g>
                            <path d="M13.5925258,8.47889522 C13.1099626,8.0141683 12.6273994,7.54944138 12.1448361,7.08471446 L9.83838088,4.86350947 C9.6630824,4.69469031 9.48778392,4.52587114 9.31248544,4.35705197 L9.31248544,5.430666 C9.79504867,4.96593908 10.2776119,4.50121216 10.7601751,4.03648524 C11.528337,3.29671586 12.2964989,2.55694648 13.0666304,1.81528025 C13.2419289,1.64646109 13.4172273,1.47764192 13.5925258,1.30882275 C13.8840334,1.02808976 13.9056995,0.512148033 13.5925258,0.235208726 C13.2773825,-0.0436274251 12.7889103,-0.0644927153 12.4777063,0.235208726 L11.0300166,1.62938948 L8.72356134,3.85059447 C8.54826286,4.01941364 8.37296439,4.18823281 8.19766591,4.35705197 C7.8963101,4.64726919 7.8963101,5.14044878 8.19766591,5.430666 C8.68022913,5.89539292 9.16279236,6.36011984 9.64535559,6.82484676 C10.4135175,7.56461614 11.1816793,8.30438552 11.9518108,9.04605175 C12.1271093,9.21487091 12.3024078,9.38369008 12.4777063,9.55250925 C12.7692139,9.83324224 13.3049575,9.85410753 13.5925258,9.55250925 C13.8800941,9.24901412 13.9037299,8.78049351 13.5925258,8.47889522 L13.5925258,8.47889522 Z" id="Shape"></path>
                            <path d="M17.8016589,4.13512116 L16.9015308,4.13512116 L14.7408293,4.13512116 L12.1271093,4.13512116 L9.86792556,4.13512116 C9.50157144,4.13512116 9.13521732,4.12943063 8.77083284,4.13512116 L8.75507567,4.13512116 C8.3434197,4.13512116 7.94752089,4.48414056 7.96721735,4.89385899 C7.9869138,5.30547426 8.31387501,5.65259681 8.75507567,5.65259681 L9.65520381,5.65259681 L11.8159053,5.65259681 L14.4296253,5.65259681 L16.688809,5.65259681 C17.0551632,5.65259681 17.4215173,5.65828735 17.7859018,5.65259681 L17.8016589,5.65259681 C18.2133149,5.65259681 18.6092137,5.30357741 18.5895173,4.89385899 C18.5698208,4.48224372 18.2428596,4.13512116 17.8016589,4.13512116 L17.8016589,4.13512116 Z" id="Shape"></path>
                            <path d="M4.94184136,7.49253605 C5.42440459,7.95726296 5.90696782,8.42198988 6.38953104,8.8867168 C7.15769291,9.62648618 7.92585478,10.3662556 8.6959863,11.1079218 C8.87128478,11.276741 9.04658326,11.4455601 9.22188173,11.6143793 L9.22188173,10.5407653 C8.73931851,11.0054922 8.25675528,11.4702191 7.77419206,11.934946 C7.00603019,12.6747154 6.23786832,13.4144848 5.4677368,14.156151 C5.29243832,14.3249702 5.11713984,14.4937893 4.94184136,14.6626085 C4.65033378,14.9433415 4.62866768,15.4592832 4.94184136,15.7362225 C5.2569847,16.0150587 5.74545686,16.035924 6.0566609,15.7362225 C6.53922413,15.2714956 7.02178735,14.8067687 7.50435058,14.3420418 C8.27251245,13.6022724 9.04067432,12.862503 9.81080583,12.1208368 C9.98610431,11.9520176 10.1614028,11.7831985 10.3367013,11.6143793 C10.6380571,11.3241621 10.6380571,10.8309825 10.3367013,10.5407653 C9.85413804,10.0760383 9.37157482,9.61131143 8.88901159,9.14658451 C8.12084972,8.40681513 7.35268785,7.66704575 6.58255633,6.92537952 C6.40725786,6.75656035 6.23195938,6.58774119 6.0566609,6.41892202 C5.76515332,6.13818902 5.22940965,6.11732373 4.94184136,6.41892202 C4.65230343,6.72241715 4.62866768,7.19093776 4.94184136,7.49253605 L4.94184136,7.49253605 Z" id="Shape"></path>
                            <path d="M0.79179762,11.8363101 L1.68798647,11.8363101 L3.83096112,11.8363101 L6.42301502,11.8363101 L8.67235055,11.8363101 C9.03476538,11.8363101 9.39914986,11.8420006 9.76156469,11.8363101 L9.77732186,11.8363101 C10.1889778,11.8363101 10.5848766,11.4872907 10.5651802,11.0775723 C10.5454837,10.665957 10.2185225,10.3188345 9.77732186,10.3188345 L8.88113301,10.3188345 L6.73815835,10.3188345 L4.14610445,10.3188345 L1.89676893,10.3188345 C1.53435409,10.3188345 1.16996962,10.3131439 0.807554787,10.3188345 L0.79179762,10.3188345 C0.380141643,10.3188345 -0.0157571666,10.6678539 0.00393929164,11.0775723 C0.0236357499,11.4891876 0.350596956,11.8363101 0.79179762,11.8363101 L0.79179762,11.8363101 Z" id="Shape"></path>
                        </g>
                    </g>
                </g>
            </g>
        </g>
    </g>
</svg>